<?xml version="1.0" encoding="UTF-8" standalone="no"?>
<!-- Created with Inkscape (http://www.inkscape.org/) -->

<svg
   xmlns:dc="http://purl.org/dc/elements/1.1/"
   xmlns:cc="http://creativecommons.org/ns#"
   xmlns:rdf="http://www.w3.org/1999/02/22-rdf-syntax-ns#"
   xmlns:svg="http://www.w3.org/2000/svg"
   xmlns="http://www.w3.org/2000/svg"
   xmlns:sodipodi="http://sodipodi.sourceforge.net/DTD/sodipodi-0.dtd"
   xmlns:inkscape="http://www.inkscape.org/namespaces/inkscape"
   id="svg2"
   version="1.1"
   inkscape:version="0.48.3.1 r9886"
   width="141.73228"
   height="141.7323"
   sodipodi:docname="extrusion-no-hole.svg">
  <metadata
     id="metadata8">
    <rdf:RDF>
      <cc:Work
         rdf:about="">
        <dc:format>image/svg+xml</dc:format>
        <dc:type
           rdf:resource="http://purl.org/dc/dcmitype/StillImage" />
        <dc:title></dc:title>
      </cc:Work>
    </rdf:RDF>
  </metadata>
  <defs
     id="defs6" />
  <sodipodi:namedview
     pagecolor="#ffffff"
     bordercolor="#666666"
     borderopacity="1"
     objecttolerance="10"
     gridtolerance="10"
     guidetolerance="10"
     inkscape:pageopacity="0"
     inkscape:pageshadow="2"
     inkscape:window-width="1589"
     inkscape:window-height="771"
     id="namedview4"
     showgrid="false"
     units="mm"
     fit-margin-top="0"
     fit-margin-left="0"
     fit-margin-right="0"
     fit-margin-bottom="0"
     inkscape:zoom="14.348454"
     inkscape:cx="25.965975"
     inkscape:cy="121.37667"
     inkscape:window-x="0"
     inkscape:window-y="0"
     inkscape:window-maximized="0"
     inkscape:current-layer="svg2" />
  <path
     style="fill:#d4d4d4;fill-opacity:1;stroke:#000000;stroke-opacity:1"
     d="M 39.25,0 C 36.747142,-0.00375172 34.052797,0.007725 31.28125,0.03125 L 11.125,0.1875 8.375,1.65625 C 5.479253,3.18452 2.840606,5.7816 1.21875,8.75 0.344203,10.35064 0.28125,12.52864 0.28125,32.78125 0.16287038,71.356613 -0.0910273,57.740728 0,109.25 l 0,21.65625 1.96875,3.40625 c 2.115137,3.6783 4.246157,5.45105 7.90625,6.59375 2.977891,0.9297 42.579156,1.1538 44.5625,0.25 2.320651,-1.0576 3.125,-3.38655 3.125,-8.90625 0,-4.3027 -0.151,-5.2615 -1.125,-6.5 -1.10073,-1.3996 -1.315251,-1.43185 -5.84375,-1.28125 L 45.90625,124.625 45.625,128.5 c -0.149369,2.1423 -0.452212,4.07815 -0.65625,4.28125 -0.714679,0.7114 -4.409054,-0.97985 -6.21875,-2.84375 l -1.8125,-1.875 0,-5.625 c 0,-5.1471 0.128764,-5.8394 1.59375,-8.625 2.040323,-3.8795 10.245488,-12.0422 13.5,-13.4375 2.16069,-0.926697 3.909536,-1.03125 18.8125,-1.03125 19.933659,0 19.04065,-0.260647 26.65625,7.40625 2.83088,2.8499 5.1773,5.4674 5.1875,5.8125 0.0101,0.345 0.48529,1.6174 1.0625,2.8125 0.79288,1.6418 1.0486,3.3611 1.0625,7.0625 0.0163,4.3333 -0.1245,5.1263 -1.3125,6.875 -1.37683,2.0265 -5.61171,4.19165 -6.78125,3.46875 -0.3217,-0.1989 -0.59375,-1.5431 -0.59375,-3 0,-1.4569 -0.20866,-3.296 -0.5,-4.0625 -0.5072,-1.3345 -0.71655,-1.375 -4.84375,-1.375 -4.146462,0 -4.366058,0.0483 -5.71875,1.65625 -1.291927,1.5357 -1.40625,2.08265 -1.40625,6.71875 0,4.1606 0.167804,5.2771 1.03125,6.375 1.993826,2.5351 3.65694,2.71285 25.84375,2.53125 20.42907,-0.1672 20.67451,-0.1778 23.09375,-1.4375 3.31212,-1.7246 4.73689,-3.13565 6.4375,-6.34375 l 1.4375,-2.71875 0.15625,-19.5625 c 0.0932,-10.7568 0.006,-20.619 -0.1875,-21.9375 -0.23335,-1.5903 -0.85257,-2.9148 -1.875,-3.9375 -1.48611,-1.4864 -1.73032,-1.5625 -6.9375,-1.5625 -4.64072,0 -5.61386,0.1574 -6.84375,1.125 -1.33895,1.0534 -1.4375,1.41215 -1.4375,5.59375 0,2.7521 0.25493,4.7236 0.65625,5.125 0.3714,0.3715 2.14071,0.65625 4.125,0.65625 l 3.5,0 -0.375,2.03125 c -0.80783,4.5684 -3.32837,6.04475 -10.46875,6.09375 -6.69957,0.0461 -9.05599,-1.0592 -15.46875,-7.1875 C 98.90489,90.4535 99.1375,91.3619 99.125,71.65625 99.11263,52.20976 99.17528,51.91456 104.28125,46.6875 112.12255,38.66018 116.2359,36.60121 123.5,36.96875 c 3.25178,0.16452 4.20603,0.42122 5.90625,1.71875 1.28625,0.9816 2.21356,2.2747 2.5625,3.53125 0.89541,3.22437 0.83193,3.33575 -2.28125,3.34375 -5.32781,0.01387 -5.3125,-0.01791 -5.3125,5.46875 0,6.571 0.49212,7.03125 7.5,7.03125 5.76732,0 7.61244,-0.71304 9.09375,-3.5 0.78543,-1.47775 0.84255,-4.07233 0.6875,-22.84375 L 141.5,10.53125 139.96875,7.96875 c -1.57333,-2.6348 -4.8221,-5.875 -5.90625,-5.875 -0.3395,0 -1.11002,-0.4146 -1.6875,-0.9375 C 131.41145,0.28373001 129.51743,0.1875 109.34375,0.1875 l -21.96875,0 -1.875,2.03125 c -1.856529,2.02563 -1.84375,2.05483 -1.84375,7.4375 0,5.35448 -0.0032,5.38467 1.65625,6.78125 1.442024,1.21363 2.19486,1.40625 5.40625,1.40625 4.83816,0 5.40625,-0.5533 5.40625,-5.1875 0,-3.4645503 0.01946,-3.5 1.53125,-3.5 1.76229,0 4.75208,2.04143 6.1875,4.21875 1.50154,2.27762 1.35727,9.58364 -0.25,13.90625 -1.49436,4.01894 -7.9408,11.16224 -11.875,13.15625 C 86.170472,43.24966 85.311967,43.367 70.8125,43.375 56.991549,43.38302 55.873506,43.25701 51.125,41.125 47.986833,39.71604 40.734246,32.6457 38.78125,29.09375 37.385397,26.55508 37.221699,25.68483 37.0625,20.3125 c -0.155111,-5.2344 -0.04993,-6.19532 0.90625,-7.71875 1.30884,-2.08528 3.934572,-3.54393 5.9375,-3.3125 1.395944,0.16129 1.445265,0.3056797 1.59375,3.6875 0.191716,4.36644 0.777962,4.875 5.4375,4.875 2.64621,0 3.862474,-0.27033 5.0625,-1.125 1.556602,-1.1086 1.5713,-1.18499 1.5625,-6.375 -0.01089,-6.4087103 -1.216898,-9.20705 -4.28125,-10 C 52.521725,0.1472425 46.758575,0.01125516 39.25,0 z"
     id="path2987"
     inkscape:connector-curvature="0"
     sodipodi:nodetypes="scccsccccscsccccsccsscssccsccscssscsscccscssscscccsssssscssscccscsccsssssssscssssssssscs" />
</svg>
