  0
SECTION
  2
HEADER
  9
$ACADVER
  1
AC1014
  9
$HANDSEED
  5
FFFF
  9
$MEASUREMENT
 70
     1
  0
ENDSEC
  0
SECTION
  2
TABLES
  0
TABLE
  2
VPORT
  5
8
330
0
100
AcDbSymbolTable
 70
     4
  0
VPORT
  5
2E
330
8
100
AcDbSymbolTableRecord
100
AcDbViewportTableRecord
  2
*ACTIVE
 70
     0
 10
0.0
 20
0.0
 11
1.0
 21
1.0
 12
210.0
 22
148.5
 13
0.0
 23
0.0
 14
10.0
 24
10.0
 15
10.0
 25
10.0
 16
0.0
 26
0.0
 36
1.0
 17
0.0
 27
0.0
 37
0.0
 40
341.0
 41
1.24
 42
50.0
 43
0.0
 44
0.0
 50
0.0
 51
0.0
 71
     0
 72
   100
 73
     1
 74
     3
 75
     0
 76
     0
 77
     0
 78
     0
  0
ENDTAB
  0
TABLE
  2
LTYPE
  5
5
330
0
100
AcDbSymbolTable
 70
     1
  0
LTYPE
  5
14
330
5
100
AcDbSymbolTableRecord
100
AcDbLinetypeTableRecord
  2
BYBLOCK
 70
     0
  3

 72
    65
 73
     0
 40
0.0
  0
LTYPE
  5
15
330
5
100
AcDbSymbolTableRecord
100
AcDbLinetypeTableRecord
  2
BYLAYER
 70
     0
  3

 72
    65
 73
     0
 40
0.0
  0
LTYPE
  5
16
330
5
100
AcDbSymbolTableRecord
100
AcDbLinetypeTableRecord
  2
CONTINUOUS
 70
     0
  3
Solid line
 72
    65
 73
     0
 40
0.0
  0
ENDTAB
  0
TABLE
  2
LAYER
  5
2
100
AcDbSymbolTable
 70
1
  0
LAYER
  5
50
100
AcDbSymbolTableRecord
100
AcDbLayerTableRecord
  2
0
 70
0
  6
CONTINUOUS
  0
ENDTAB
  0
TABLE
  2
STYLE
  5
3
330
0
100
AcDbSymbolTable
 70
     1
  0
STYLE
  5
11
330
3
100
AcDbSymbolTableRecord
100
AcDbTextStyleTableRecord
  2
STANDARD
 70
     0
 40
0.0
 41
1.0
 50
0.0
 71
     0
 42
2.5
  3
txt
  4

  0
ENDTAB
  0
TABLE
  2
VIEW
  5
6
330
0
100
AcDbSymbolTable
 70
     0
  0
ENDTAB
  0
TABLE
  2
UCS
  5
7
330
0
100
AcDbSymbolTable
 70
     0
  0
ENDTAB
  0
TABLE
  2
APPID
  5
9
330
0
100
AcDbSymbolTable
 70
     2
  0
APPID
  5
12
330
9
100
AcDbSymbolTableRecord
100
AcDbRegAppTableRecord
  2
ACAD
 70
     0
  0
ENDTAB
  0
TABLE
  2
DIMSTYLE
  5
A
330
0
100
AcDbSymbolTable
 70
     1
  0
DIMSTYLE
105
27
330
A
100
AcDbSymbolTableRecord
100
AcDbDimStyleTableRecord
  2
ISO-25
 70
     0
  3

  4

  5

  6

  7

 40
1.0
 41
2.5
 42
0.625
 43
3.75
 44
1.25
 45
0.0
 46
0.0
 47
0.0
 48
0.0
140
2.5
141
2.5
142
0.0
143
0.03937007874016
144
1.0
145
0.0
146
1.0
147
0.625
 71
     0
 72
     0
 73
     0
 74
     0
 75
     0
 76
     0
 77
     1
 78
     8
170
     0
171
     3
172
     1
173
     0
174
     0
175
     0
176
     0
177
     0
178
     0
270
     2
271
     2
272
     2
273
     2
274
     3
340
11
275
     0
280
     0
281
     0
282
     0
283
     0
284
     8
285
     0
286
     0
287
     3
288
     0
  0
ENDTAB
  0
TABLE
  2
BLOCK_RECORD
  5
1
330
0
100
AcDbSymbolTable
 70
     1
  0
BLOCK_RECORD
  5
1F
330
1
100
AcDbSymbolTableRecord
100
AcDbBlockTableRecord
  2
*MODEL_SPACE
  0
BLOCK_RECORD
  5
1B
330
1
100
AcDbSymbolTableRecord
100
AcDbBlockTableRecord
  2
*PAPER_SPACE
  0
ENDTAB
  0
ENDSEC
  0
SECTION
  2
BLOCKS
  0
BLOCK
  5
20
330
1F
100
AcDbEntity
  8
0
100
AcDbBlockBegin
  2
*MODEL_SPACE
 70
     0
 10
0.0
 20
0.0
 30
0.0
  3
*MODEL_SPACE
  1

  0
ENDBLK
  5
21
330
1F
100
AcDbEntity
  8
0
100
AcDbBlockEnd
  0
BLOCK
  5
1C
330
1B
100
AcDbEntity
 67
     1
  8
0
100
AcDbBlockBegin
  2
*PAPER_SPACE
  1

  0
ENDBLK
  5
1D
330
1B
100
AcDbEntity
 67
     1
  8
0
100
AcDbBlockEnd
  0
ENDSEC
  0
SECTION
  2
ENTITIES
  0
LWPOLYLINE
  5
100
100
AcDbEntity
  8
0
 62
7
100
AcDbPolyline
 90
873
 70
0
 10
11.077222
 20
40.000005
 30
0.0
 10
10.809866
 20
40.000202
 30
0.0
 10
10.537822
 20
40.000007
 30
0.0
 10
10.261467
 20
39.999430
 30
0.0
 10
9.981179
 20
39.998482
 30
0.0
 10
9.697337
 20
39.997173
 30
0.0
 10
9.410319
 20
39.995513
 30
0.0
 10
9.120502
 20
39.993514
 30
0.0
 10
8.828264
 20
39.991185
 30
0.0
 10
8.117196
 20
39.985673
 30
0.0
 10
7.406128
 20
39.980161
 30
0.0
 10
6.695061
 20
39.974649
 30
0.0
 10
5.983993
 20
39.969137
 30
0.0
 10
5.272925
 20
39.963624
 30
0.0
 10
4.561857
 20
39.958112
 30
0.0
 10
3.850790
 20
39.952600
 30
0.0
 10
3.139722
 20
39.947088
 30
0.0
 10
3.042708
 20
39.895274
 30
0.0
 10
2.945694
 20
39.843460
 30
0.0
 10
2.848681
 20
39.791645
 30
0.0
 10
2.751667
 20
39.739831
 30
0.0
 10
2.654653
 20
39.688017
 30
0.0
 10
2.557639
 20
39.636203
 30
0.0
 10
2.460625
 20
39.584388
 30
0.0
 10
2.363611
 20
39.532574
 30
0.0
 10
2.060965
 20
39.357077
 30
0.0
 10
1.767633
 20
39.155608
 30
0.0
 10
1.486129
 20
38.930474
 30
0.0
 10
1.218965
 20
38.683981
 30
0.0
 10
0.968653
 20
38.418436
 30
0.0
 10
0.737706
 20
38.136147
 30
0.0
 10
0.528637
 20
37.839419
 30
0.0
 10
0.343958
 20
37.530560
 30
0.0
 10
0.261726
 20
37.343876
 30
0.0
 10
0.198491
 20
37.084048
 30
0.0
 10
0.151778
 20
36.693207
 30
0.0
 10
0.119110
 20
36.113484
 30
0.0
 10
0.098012
 20
35.287011
 30
0.0
 10
0.086008
 20
34.155920
 30
0.0
 10
0.080620
 20
32.662341
 30
0.0
 10
0.079375
 20
30.748407
 30
0.0
 10
0.079375
 20
29.963477
 30
0.0
 10
0.079375
 20
29.178546
 30
0.0
 10
0.079375
 20
28.393616
 30
0.0
 10
0.079375
 20
27.608685
 30
0.0
 10
0.079375
 20
26.823755
 30
0.0
 10
0.079375
 20
26.038824
 30
0.0
 10
0.079375
 20
25.253894
 30
0.0
 10
0.079375
 20
24.468963
 30
0.0
 10
0.155443
 20
24.416046
 30
0.0
 10
0.231510
 20
24.363130
 30
0.0
 10
0.307578
 20
24.310213
 30
0.0
 10
0.383646
 20
24.257296
 30
0.0
 10
0.459714
 20
24.204380
 30
0.0
 10
0.535781
 20
24.151463
 30
0.0
 10
0.611849
 20
24.098546
 30
0.0
 10
0.687917
 20
24.045630
 30
0.0
 10
0.884200
 20
23.915501
 30
0.0
 10
1.061998
 20
23.815379
 30
0.0
 10
1.239994
 20
23.741291
 30
0.0
 10
1.436875
 20
23.689263
 30
0.0
 10
1.671326
 20
23.655323
 30
0.0
 10
1.962030
 20
23.635497
 30
0.0
 10
2.327675
 20
23.625811
 30
0.0
 10
2.786944
 20
23.622295
 30
0.0
 10
3.260260
 20
23.622055
 30
0.0
 10
3.625466
 20
23.627762
 30
0.0
 10
3.901129
 20
23.643560
 30
0.0
 10
4.105816
 20
23.673603
 30
0.0
 10
4.258091
 20
23.722036
 30
0.0
 10
4.376522
 20
23.793009
 30
0.0
 10
4.479673
 20
23.890671
 30
0.0
 10
4.586111
 20
24.019171
 30
0.0
 10
4.674342
 20
24.142465
 30
0.0
 10
4.745319
 20
24.270332
 30
0.0
 10
4.800735
 20
24.411378
 30
0.0
 10
4.842282
 20
24.574208
 30
0.0
 10
4.871651
 20
24.767429
 30
0.0
 10
4.890535
 20
24.999645
 30
0.0
 10
4.900624
 20
25.279464
 30
0.0
 10
4.903610
 20
25.615491
 30
0.0
 10
4.900455
 20
25.895543
 30
0.0
 10
4.891060
 20
26.143604
 30
0.0
 10
4.875529
 20
26.359286
 30
0.0
 10
4.853970
 20
26.542199
 30
0.0
 10
4.826490
 20
26.691957
 30
0.0
 10
4.793198
 20
26.808169
 30
0.0
 10
4.754193
 20
26.890449
 30
0.0
 10
4.709583
 20
26.938407
 30
0.0
 10
4.651022
 20
26.964982
 30
0.0
 10
4.557530
 20
26.992956
 30
0.0
 10
4.433836
 20
27.021454
 30
0.0
 10
4.284667
 20
27.049605
 30
0.0
 10
4.114749
 20
27.076533
 30
0.0
 10
3.928810
 20
27.101367
 30
0.0
 10
3.731577
 20
27.123232
 30
0.0
 10
3.527778
 20
27.141255
 30
0.0
 10
3.218192
 20
27.166997
 30
0.0
 10
2.979368
 20
27.193504
 30
0.0
 10
2.801569
 20
27.225063
 30
0.0
 10
2.675054
 20
27.265960
 30
0.0
 10
2.590087
 20
27.320484
 30
0.0
 10
2.536928
 20
27.392921
 30
0.0
 10
2.505840
 20
27.487559
 30
0.0
 10
2.487083
 20
27.608685
 30
0.0
 10
2.493544
 20
27.805933
 30
0.0
 10
2.550943
 20
28.027509
 30
0.0
 10
2.652731
 20
28.263308
 30
0.0
 10
2.792362
 20
28.503228
 30
0.0
 10
2.963286
 20
28.737162
 30
0.0
 10
3.158954
 20
28.955009
 30
0.0
 10
3.372820
 20
29.146662
 30
0.0
 10
3.598333
 20
29.302019
 30
0.0
 10
3.882444
 20
29.421648
 30
0.0
 10
4.255767
 20
29.508469
 30
0.0
 10
4.698151
 20
29.562269
 30
0.0
 10
5.189447
 20
29.582835
 30
0.0
 10
5.709507
 20
29.569952
 30
0.0
 10
6.238179
 20
29.523407
 30
0.0
 10
6.755315
 20
29.442986
 30
0.0
 10
7.240764
 20
29.328477
 30
0.0
 10
7.532141
 20
29.238896
 30
0.0
 10
7.789869
 20
29.140165
 30
0.0
 10
8.033087
 20
29.018946
 30
0.0
 10
8.280934
 20
28.861901
 30
0.0
 10
8.552548
 20
28.655690
 30
0.0
 10
8.867069
 20
28.386977
 30
0.0
 10
9.243637
 20
28.042421
 30
0.0
 10
9.701389
 20
27.608685
 30
0.0
 10
10.475935
 20
26.850109
 30
0.0
 10
11.063685
 20
26.195925
 30
0.0
 10
11.490382
 20
25.563242
 30
0.0
 10
11.781769
 20
24.869167
 30
0.0
 10
11.963591
 20
24.030810
 30
0.0
 10
12.061590
 20
22.965276
 30
0.0
 10
12.101511
 20
21.589676
 30
0.0
 10
12.109097
 20
19.821116
 30
0.0
 10
12.106275
 20
18.973277
 30
0.0
 10
12.097941
 20
18.200361
 30
0.0
 10
12.084256
 20
17.508856
 30
0.0
 10
12.065392
 20
16.905251
 30
0.0
 10
12.041516
 20
16.396034
 30
0.0
 10
12.012800
 20
15.987692
 30
0.0
 10
11.979412
 20
15.686714
 30
0.0
 10
11.941521
 20
15.499588
 30
0.0
 10
11.778372
 20
15.026631
 30
0.0
 10
11.593244
 20
14.584885
 30
0.0
 10
11.381533
 20
14.167251
 30
0.0
 10
11.138635
 20
13.766631
 30
0.0
 10
10.859948
 20
13.375924
 30
0.0
 10
10.540868
 20
12.988032
 30
0.0
 10
10.176793
 20
12.595856
 30
0.0
 10
9.763118
 20
12.192296
 30
0.0
 10
9.194755
 20
11.684285
 30
0.0
 10
8.674743
 20
11.276993
 30
0.0
 10
8.180569
 20
10.961607
 30
0.0
 10
7.689719
 20
10.729316
 30
0.0
 10
7.179681
 20
10.571308
 30
0.0
 10
6.627940
 20
10.478773
 30
0.0
 10
6.011984
 20
10.442897
 30
0.0
 10
5.309299
 20
10.454863
 30
0.0
 10
4.660041
 20
10.502609
 30
0.0
 10
4.115502
 20
10.588213
 30
0.0
 10
3.666149
 20
10.717736
 30
0.0
 10
3.302449
 20
10.897243
 30
0.0
 10
3.014870
 20
11.132797
 30
0.0
 10
2.793886
 20
11.430468
 30
0.0
 10
2.629952
 20
11.796311
 30
0.0
 10
2.513542
 20
12.236394
 30
0.0
 10
2.501415
 20
12.298130
 30
0.0
 10
2.489288
 20
12.359866
 30
0.0
 10
2.477161
 20
12.421602
 30
0.0
 10
2.465035
 20
12.483338
 30
0.0
 10
2.452908
 20
12.545074
 30
0.0
 10
2.440781
 20
12.606810
 30
0.0
 10
2.428655
 20
12.668546
 30
0.0
 10
2.416528
 20
12.730282
 30
0.0
 10
2.534488
 20
12.730282
 30
0.0
 10
2.652448
 20
12.730282
 30
0.0
 10
2.770408
 20
12.730282
 30
0.0
 10
2.888368
 20
12.730282
 30
0.0
 10
3.006328
 20
12.730282
 30
0.0
 10
3.124288
 20
12.730282
 30
0.0
 10
3.242248
 20
12.730282
 30
0.0
 10
3.360208
 20
12.730282
 30
0.0
 10
3.844049
 20
12.736816
 30
0.0
 10
4.214868
 20
12.766462
 30
0.0
 10
4.487616
 20
12.834291
 30
0.0
 10
4.677246
 20
12.955376
 30
0.0
 10
4.798708
 20
13.144787
 30
0.0
 10
4.866956
 20
13.417595
 30
0.0
 10
4.896939
 20
13.788871
 30
0.0
 10
4.903611
 20
14.273686
 30
0.0
 10
4.901522
 20
14.644524
 30
0.0
 10
4.893115
 20
14.940973
 30
0.0
 10
4.875239
 20
15.175914
 30
0.0
 10
4.844725
 20
15.362227
 30
0.0
 10
4.798430
 20
15.512794
 30
0.0
 10
4.733184
 20
15.640495
 30
0.0
 10
4.645826
 20
15.758211
 30
0.0
 10
4.533194
 20
15.878824
 30
0.0
 10
4.409253
 20
15.995141
 30
0.0
 10
4.287385
 20
16.085050
 30
0.0
 10
4.150557
 20
16.151911
 30
0.0
 10
3.981735
 20
16.199083
 30
0.0
 10
3.763885
 20
16.229924
 30
0.0
 10
3.479974
 20
16.247795
 30
0.0
 10
3.112968
 20
16.256054
 30
0.0
 10
2.645833
 20
16.258060
 30
0.0
 10
2.120935
 20
16.251348
 30
0.0
 10
1.686075
 20
16.228431
 30
0.0
 10
1.327436
 20
16.185142
 30
0.0
 10
1.031203
 20
16.117313
 30
0.0
 10
0.783562
 20
16.020775
 30
0.0
 10
0.570695
 20
15.891360
 30
0.0
 10
0.378789
 20
15.724900
 30
0.0
 10
0.194028
 20
15.517227
 30
0.0
 10
0.143737
 20
15.383640
 30
0.0
 10
0.102064
 20
15.104120
 30
0.0
 10
0.068421
 20
14.657323
 30
0.0
 10
0.042217
 20
14.021907
 30
0.0
 10
0.022863
 20
13.176532
 30
0.0
 10
0.009768
 20
12.099855
 30
0.0
 10
0.002344
 20
10.770534
 30
0.0
 10
0.000000
 20
9.167227
 30
0.0
 10
0.000000
 20
8.403243
 30
0.0
 10
0.000000
 20
7.639259
 30
0.0
 10
0.000000
 20
6.875275
 30
0.0
 10
0.000000
 20
6.111288
 30
0.0
 10
0.000000
 20
5.347304
 30
0.0
 10
0.000000
 20
4.583320
 30
0.0
 10
0.000000
 20
3.819336
 30
0.0
 10
0.000000
 20
3.055352
 30
0.0
 10
0.069453
 20
2.935187
 30
0.0
 10
0.138906
 20
2.815023
 30
0.0
 10
0.208359
 20
2.694858
 30
0.0
 10
0.277812
 20
2.574694
 30
0.0
 10
0.347266
 20
2.454526
 30
0.0
 10
0.416719
 20
2.334362
 30
0.0
 10
0.486172
 20
2.214197
 30
0.0
 10
0.555625
 20
2.094032
 30
0.0
 10
0.780521
 20
1.729252
 30
0.0
 10
1.010842
 20
1.410671
 30
0.0
 10
1.251593
 20
1.134068
 30
0.0
 10
1.507777
 20
0.895231
 30
0.0
 10
1.784400
 20
0.689935
 30
0.0
 10
2.086465
 20
0.513966
 30
0.0
 10
2.418979
 20
0.363104
 30
0.0
 10
2.786944
 20
0.233130
 30
0.0
 10
3.545678
 20
0.144303
 30
0.0
 10
5.027868
 20
0.075542
 30
0.0
 10
6.987975
 20
0.028245
 30
0.0
 10
9.180464
 20
0.003804
 30
0.0
 10
11.359796
 20
0.003621
 30
0.0
 10
13.280433
 20
0.029077
 30
0.0
 10
14.696837
 20
0.081596
 30
0.0
 10
15.363472
 20
0.162560
 30
0.0
 10
15.589407
 20
0.292365
 30
0.0
 10
15.777579
 20
0.462159
 30
0.0
 10
15.930340
 20
0.678284
 30
0.0
 10
16.050047
 20
0.947093
 30
0.0
 10
16.139053
 20
1.274930
 30
0.0
 10
16.199714
 20
1.668145
 30
0.0
 10
16.234383
 20
2.133086
 30
0.0
 10
16.245416
 20
2.676102
 30
0.0
 10
16.243045
 20
3.089230
 30
0.0
 10
16.234460
 20
3.425870
 30
0.0
 10
16.217433
 20
3.698006
 30
0.0
 10
16.189744
 20
3.917617
 30
0.0
 10
16.149170
 20
4.096695
 30
0.0
 10
16.093489
 20
4.247219
 30
0.0
 10
16.020477
 20
4.381175
 30
0.0
 10
15.927913
 20
4.510546
 30
0.0
 10
15.820276
 20
4.641235
 30
0.0
 10
15.718889
 20
4.739663
 30
0.0
 10
15.606552
 20
4.809747
 30
0.0
 10
15.466067
 20
4.855408
 30
0.0
 10
15.280236
 20
4.880554
 30
0.0
 10
15.031859
 20
4.889105
 30
0.0
 10
14.703739
 20
4.884984
 30
0.0
 10
14.278677
 20
4.872115
 30
0.0
 10
14.113312
 20
4.866612
 30
0.0
 10
13.947947
 20
4.861108
 30
0.0
 10
13.782583
 20
4.855605
 30
0.0
 10
13.617218
 20
4.850102
 30
0.0
 10
13.451854
 20
4.844598
 30
0.0
 10
13.286489
 20
4.839095
 30
0.0
 10
13.121124
 20
4.833592
 30
0.0
 10
12.955760
 20
4.828088
 30
0.0
 10
12.945837
 20
4.691386
 30
0.0
 10
12.935914
 20
4.554686
 30
0.0
 10
12.925991
 20
4.417983
 30
0.0
 10
12.916068
 20
4.281283
 30
0.0
 10
12.906145
 20
4.144580
 30
0.0
 10
12.896222
 20
4.007880
 30
0.0
 10
12.886299
 20
3.871180
 30
0.0
 10
12.876376
 20
3.734477
 30
0.0
 10
12.858678
 20
3.511324
 30
0.0
 10
12.837752
 20
3.298678
 30
0.0
 10
12.814434
 20
3.101594
 30
0.0
 10
12.789559
 20
2.925115
 30
0.0
 10
12.763962
 20
2.774287
 30
0.0
 10
12.738474
 20
2.654165
 30
0.0
 10
12.713932
 20
2.569789
 30
0.0
 10
12.691171
 20
2.526213
 30
0.0
 10
12.578796
 20
2.481478
 30
0.0
 10
12.403672
 20
2.492937
 30
0.0
 10
12.181885
 20
2.553219
 30
0.0
 10
11.929525
 20
2.654943
 30
0.0
 10
11.662679
 20
2.790738
 30
0.0
 10
11.397434
 20
2.953224
 30
0.0
 10
11.149879
 20
3.135032
 30
0.0
 10
10.936111
 20
3.328755
 30
0.0
 10
10.872170
 20
3.394902
 30
0.0
 10
10.808229
 20
3.461046
 30
0.0
 10
10.744288
 20
3.527194
 30
0.0
 10
10.680347
 20
3.593338
 30
0.0
 10
10.616406
 20
3.659485
 30
0.0
 10
10.552465
 20
3.725630
 30
0.0
 10
10.488524
 20
3.791777
 30
0.0
 10
10.424583
 20
3.857921
 30
0.0
 10
10.424583
 20
4.056357
 30
0.0
 10
10.424583
 20
4.254796
 30
0.0
 10
10.424583
 20
4.453232
 30
0.0
 10
10.424583
 20
4.651671
 30
0.0
 10
10.424583
 20
4.850107
 30
0.0
 10
10.424583
 20
5.048546
 30
0.0
 10
10.424583
 20
5.246982
 30
0.0
 10
10.424583
 20
5.445421
 30
0.0
 10
10.426954
 20
5.934831
 30
0.0
 10
10.436725
 20
6.328032
 30
0.0
 10
10.457888
 20
6.646680
 30
0.0
 10
10.494438
 20
6.912429
 30
0.0
 10
10.550369
 20
7.146939
 30
0.0
 10
10.629674
 20
7.371865
 30
0.0
 10
10.736346
 20
7.608861
 30
0.0
 10
10.874379
 20
7.879588
 30
0.0
 10
11.165739
 20
8.340742
 30
0.0
 10
11.583450
 20
8.878674
 30
0.0
 10
12.090749
 20
9.456835
 30
0.0
 10
12.650874
 20
10.038681
 30
0.0
 10
13.227062
 20
10.587663
 30
0.0
 10
13.782550
 20
11.067234
 30
0.0
 10
14.280577
 20
11.440843
 30
0.0
 10
14.684379
 20
11.671949
 30
0.0
 10
14.915081
 20
11.759542
 30
0.0
 10
15.179753
 20
11.827759
 30
0.0
 10
15.523262
 20
11.878969
 30
0.0
 10
15.990474
 20
11.915545
 30
0.0
 10
16.626256
 20
11.939862
 30
0.0
 10
17.475473
 20
11.954292
 30
0.0
 10
18.582994
 20
11.961209
 30
0.0
 10
19.993684
 20
11.962987
 30
0.0
 10
21.843981
 20
11.961914
 30
0.0
 10
23.240258
 20
11.940666
 30
0.0
 10
24.279537
 20
11.872151
 30
0.0
 10
25.058838
 20
11.729290
 30
0.0
 10
25.675182
 20
11.485004
 30
0.0
 10
26.225588
 20
11.112208
 30
0.0
 10
26.807078
 20
10.583826
 30
0.0
 10
27.516667
 20
9.872782
 30
0.0
 10
27.808836
 20
9.575365
 30
0.0
 10
28.082065
 20
9.290843
 30
0.0
 10
28.330229
 20
9.025966
 30
0.0
 10
28.547201
 20
8.787480
 30
0.0
 10
28.726858
 20
8.582129
 30
0.0
 10
28.863076
 20
8.416663
 30
0.0
 10
28.949729
 20
8.297827
 30
0.0
 10
28.980694
 20
8.232366
 30
0.0
 10
28.987722
 20
8.184140
 30
0.0
 10
29.005840
 20
8.114696
 30
0.0
 10
29.033865
 20
8.027362
 30
0.0
 10
29.070596
 20
7.925460
 30
0.0
 10
29.114832
 20
7.812312
 30
0.0
 10
29.165369
 20
7.691239
 30
0.0
 10
29.221009
 20
7.565565
 30
0.0
 10
29.280547
 20
7.438616
 30
0.0
 10
29.357518
 20
7.262783
 30
0.0
 10
29.421252
 20
7.078602
 30
0.0
 10
29.472726
 20
6.879771
 30
0.0
 10
29.512920
 20
6.659993
 30
0.0
 10
29.542808
 20
6.412967
 30
0.0
 10
29.563382
 20
6.132398
 30
0.0
 10
29.575602
 20
5.811980
 30
0.0
 10
29.580428
 20
5.445421
 30
0.0
 10
29.579581
 20
5.031170
 30
0.0
 10
29.571651
 20
4.695721
 30
0.0
 10
29.553673
 20
4.424203
 30
0.0
 10
29.522697
 20
4.201744
 30
0.0
 10
29.475788
 20
4.013482
 30
0.0
 10
29.410005
 20
3.844538
 30
0.0
 10
29.322403
 20
3.680051
 30
0.0
 10
29.210037
 20
3.505144
 30
0.0
 10
29.029779
 20
3.290505
 30
0.0
 10
28.793491
 20
3.082211
 30
0.0
 10
28.520763
 20
2.890269
 30
0.0
 10
28.231188
 20
2.724686
 30
0.0
 10
27.944357
 20
2.595476
 30
0.0
 10
27.679857
 20
2.512650
 30
0.0
 10
27.457280
 20
2.486206
 30
0.0
 10
27.296217
 20
2.526174
 30
0.0
 10
27.262950
 20
2.561807
 30
0.0
 10
27.231732
 20
2.624325
 30
0.0
 10
27.203299
 20
2.710318
 30
0.0
 10
27.178387
 20
2.816369
 30
0.0
 10
27.157731
 20
2.939062
 30
0.0
 10
27.142065
 20
3.074980
 30
0.0
 10
27.132125
 20
3.220712
 30
0.0
 10
27.128648
 20
3.372841
 30
0.0
 10
27.125967
 20
3.531283
 30
0.0
 10
27.118172
 20
3.695028
 30
0.0
 10
27.105690
 20
3.859262
 30
0.0
 10
27.088937
 20
4.019172
 30
0.0
 10
27.068329
 20
4.169949
 30
0.0
 10
27.044284
 20
4.306782
 30
0.0
 10
27.017219
 20
4.424861
 30
0.0
 10
26.987548
 20
4.519368
 30
0.0
 10
26.935486
 20
4.644176
 30
0.0
 10
26.877362
 20
4.738892
 30
0.0
 10
26.799234
 20
4.807661
 30
0.0
 10
26.687158
 20
4.854631
 30
0.0
 10
26.527193
 20
4.883946
 30
0.0
 10
26.305395
 20
4.899750
 30
0.0
 10
26.007824
 20
4.906185
 30
0.0
 10
25.620534
 20
4.907314
 30
0.0
 10
25.230861
 20
4.905903
 30
0.0
 10
24.928350
 20
4.898142
 30
0.0
 10
24.696269
 20
4.879120
 30
0.0
 10
24.517881
 20
4.843825
 30
0.0
 10
24.376453
 20
4.787257
 30
0.0
 10
24.255249
 20
4.704416
 30
0.0
 10
24.137535
 20
4.590308
 30
0.0
 10
24.006528
 20
4.440005
 30
0.0
 10
23.884792
 20
4.287757
 30
0.0
 10
23.790697
 20
4.144876
 30
0.0
 10
23.720726
 20
3.994568
 30
0.0
 10
23.671362
 20
3.820039
 30
0.0
 10
23.639090
 20
3.604494
 30
0.0
 10
23.620392
 20
3.331139
 30
0.0
 10
23.611754
 20
2.983182
 30
0.0
 10
23.609665
 20
2.543824
 30
0.0
 10
23.612177
 20
2.142098
 30
0.0
 10
23.620872
 20
1.810907
 30
0.0
 10
23.637501
 20
1.540245
 30
0.0
 10
23.663804
 20
1.320106
 30
0.0
 10
23.701531
 20
1.140483
 30
0.0
 10
23.752427
 20
0.991373
 30
0.0
 10
23.818236
 20
0.862765
 30
0.0
 10
23.900706
 20
0.744657
 30
0.0
 10
24.118840
 20
0.506445
 30
0.0
 10
24.397194
 20
0.323994
 30
0.0
 10
24.804743
 20
0.190700
 30
0.0
 10
25.410455
 20
0.099952
 30
0.0
 10
26.283305
 20
0.045144
 30
0.0
 10
27.492262
 20
0.019660
 30
0.0
 10
29.106298
 20
0.016837
 30
0.0
 10
31.194387
 20
0.030186
 30
0.0
 10
33.101774
 20
0.046584
 30
0.0
 10
34.549080
 20
0.063489
 30
0.0
 10
35.610244
 20
0.085558
 30
0.0
 10
36.359211
 20
0.117421
 30
0.0
 10
36.869923
 20
0.163737
 30
0.0
 10
37.216323
 20
0.229153
 30
0.0
 10
37.472355
 20
0.318321
 30
0.0
 10
37.711956
 20
0.435889
 30
0.0
 10
38.038713
 20
0.615425
 30
0.0
 10
38.322688
 20
0.793648
 30
0.0
 10
38.571035
 20
0.977533
 30
0.0
 10
38.790909
 20
1.174061
 30
0.0
 10
38.989466
 20
1.390215
 30
0.0
 10
39.173856
 20
1.632977
 30
0.0
 10
39.351238
 20
1.909324
 30
0.0
 10
39.528762
 20
2.226237
 30
0.0
 10
39.579474
 20
2.322147
 30
0.0
 10
39.630184
 20
2.418060
 30
0.0
 10
39.680896
 20
2.513971
 30
0.0
 10
39.731609
 20
2.609884
 30
0.0
 10
39.782321
 20
2.705794
 30
0.0
 10
39.833031
 20
2.801705
 30
0.0
 10
39.883744
 20
2.897618
 30
0.0
 10
39.934456
 20
2.993528
 30
0.0
 10
39.939959
 20
3.683649
 30
0.0
 10
39.945463
 20
4.373770
 30
0.0
 10
39.950966
 20
5.063894
 30
0.0
 10
39.956469
 20
5.754014
 30
0.0
 10
39.961973
 20
6.444135
 30
0.0
 10
39.967476
 20
7.134256
 30
0.0
 10
39.972979
 20
7.824380
 30
0.0
 10
39.978483
 20
8.514501
 30
0.0
 10
39.985990
 20
9.636879
 30
0.0
 10
39.988981
 20
10.710288
 30
0.0
 10
39.987570
 20
11.709431
 30
0.0
 10
39.982236
 20
12.609012
 30
0.0
 10
39.973120
 20
13.383733
 30
0.0
 10
39.960449
 20
14.008294
 30
0.0
 10
39.944475
 20
14.457399
 30
0.0
 10
39.925453
 20
14.705751
 30
0.0
 10
39.895639
 20
14.870521
 30
0.0
 10
39.855561
 20
15.028139
 30
0.0
 10
39.805159
 20
15.178487
 30
0.0
 10
39.744377
 20
15.321446
 30
0.0
 10
39.673155
 20
15.456896
 30
0.0
 10
39.591440
 20
15.584717
 30
0.0
 10
39.499168
 20
15.704792
 30
0.0
 10
39.396286
 20
15.817001
 30
0.0
 10
39.252014
 20
15.956390
 30
0.0
 10
39.120081
 20
16.062877
 30
0.0
 10
38.979964
 20
16.140875
 30
0.0
 10
38.811141
 20
16.194797
 30
0.0
 10
38.593090
 20
16.229055
 30
0.0
 10
38.305294
 20
16.248063
 30
0.0
 10
37.927227
 20
16.256231
 30
0.0
 10
37.438370
 20
16.257980
 30
0.0
 10
36.993582
 20
16.255525
 30
0.0
 10
36.632854
 20
16.246759
 30
0.0
 10
36.343206
 20
16.229510
 30
0.0
 10
36.111660
 20
16.201621
 30
0.0
 10
35.925238
 20
16.160930
 30
0.0
 10
35.770956
 20
16.105281
 30
0.0
 10
35.635842
 20
16.032512
 30
0.0
 10
35.506911
 20
15.940466
 30
0.0
 10
35.380987
 20
15.835681
 30
0.0
 10
35.284103
 20
15.734334
 30
0.0
 10
35.212486
 20
15.621485
 30
0.0
 10
35.162358
 20
15.482194
 30
0.0
 10
35.129944
 20
15.301519
 30
0.0
 10
35.111459
 20
15.064519
 30
0.0
 10
35.103133
 20
14.756255
 30
0.0
 10
35.101158
 20
14.361786
 30
0.0
 10
35.104460
 20
14.081284
 30
0.0
 10
35.114168
 20
13.824046
 30
0.0
 10
35.129888
 20
13.592684
 30
0.0
 10
35.151280
 20
13.389809
 30
0.0
 10
35.177979
 20
13.218031
 30
0.0
 10
35.209630
 20
13.079963
 30
0.0
 10
35.245876
 20
12.978214
 30
0.0
 10
35.286352
 20
12.915397
 30
0.0
 10
35.343499
 20
12.877337
 30
0.0
 10
35.433720
 20
12.842226
 30
0.0
 10
35.553106
 20
12.810721
 30
0.0
 10
35.697739
 20
12.783475
 30
0.0
 10
35.863708
 20
12.761143
 30
0.0
 10
36.047102
 20
12.744382
 30
0.0
 10
36.244011
 20
12.733844
 30
0.0
 10
36.450519
 20
12.730186
 30
0.0
 10
36.573991
 20
12.730186
 30
0.0
 10
36.697463
 20
12.730186
 30
0.0
 10
36.820935
 20
12.730186
 30
0.0
 10
36.944408
 20
12.730186
 30
0.0
 10
37.067880
 20
12.730186
 30
0.0
 10
37.191352
 20
12.730186
 30
0.0
 10
37.314824
 20
12.730186
 30
0.0
 10
37.438296
 20
12.730186
 30
0.0
 10
37.425060
 20
12.658528
 30
0.0
 10
37.411824
 20
12.586870
 30
0.0
 10
37.398588
 20
12.515212
 30
0.0
 10
37.385352
 20
12.443554
 30
0.0
 10
37.372115
 20
12.371896
 30
0.0
 10
37.358879
 20
12.300238
 30
0.0
 10
37.345643
 20
12.228580
 30
0.0
 10
37.332407
 20
12.156922
 30
0.0
 10
37.222650
 20
11.713421
 30
0.0
 10
37.057965
 20
11.346225
 30
0.0
 10
36.828736
 20
11.049827
 30
0.0
 10
36.525344
 20
10.818723
 30
0.0
 10
36.138180
 20
10.647409
 30
0.0
 10
35.657627
 20
10.530374
 30
0.0
 10
35.074070
 20
10.462116
 30
0.0
 10
34.377893
 20
10.437139
 30
0.0
 10
33.721681
 20
10.449642
 30
0.0
 10
33.152602
 20
10.505397
 30
0.0
 10
32.642878
 20
10.617225
 30
0.0
 10
32.164726
 20
10.797932
 30
0.0
 10
31.690370
 20
11.060320
 30
0.0
 10
31.192027
 20
11.417195
 30
0.0
 10
30.641920
 20
11.881363
 30
0.0
 10
30.012268
 20
12.465625
 30
0.0
 10
29.322107
 20
13.127708
 30
0.0
 10
28.808740
 20
13.672359
 30
0.0
 10
28.445985
 20
14.194270
 30
0.0
 10
28.207659
 20
14.788133
 30
0.0
 10
28.067578
 20
15.548640
 30
0.0
 10
27.999559
 20
16.570483
 30
0.0
 10
27.977419
 20
17.948354
 30
0.0
 10
27.974963
 20
19.776945
 30
0.0
 10
27.977390
 20
21.594951
 30
0.0
 10
27.998230
 20
22.985896
 30
0.0
 10
28.053916
 20
24.029430
 30
0.0
 10
28.160882
 20
24.805203
 30
0.0
 10
28.335558
 20
25.392864
 30
0.0
 10
28.594378
 20
25.872064
 30
0.0
 10
28.953771
 20
26.322453
 30
0.0
 10
29.430174
 20
26.823681
 30
0.0
 10
30.214520
 20
27.596233
 30
0.0
 10
30.922982
 20
28.222587
 30
0.0
 10
31.578305
 20
28.714457
 30
0.0
 10
32.203244
 20
29.083557
 30
0.0
 10
32.820543
 20
29.341601
 30
0.0
 10
33.452961
 20
29.500302
 30
0.0
 10
34.123239
 20
29.571373
 30
0.0
 10
34.854132
 20
29.566527
 30
0.0
 10
35.169561
 20
29.547373
 30
0.0
 10
35.434268
 20
29.522642
 30
0.0
 10
35.658319
 20
29.489197
 30
0.0
 10
35.851776
 20
29.443902
 30
0.0
 10
36.024708
 20
29.383617
 30
0.0
 10
36.187180
 20
29.305207
 30
0.0
 10
36.349258
 20
29.205533
 30
0.0
 10
36.521007
 20
29.081458
 30
0.0
 10
36.652266
 20
28.973642
 30
0.0
 10
36.773302
 20
28.858736
 30
0.0
 10
36.883389
 20
28.737891
 30
0.0
 10
36.981803
 20
28.612258
 30
0.0
 10
37.067815
 20
28.482987
 30
0.0
 10
37.140705
 20
28.351229
 30
0.0
 10
37.199740
 20
28.218137
 30
0.0
 10
37.244201
 20
28.084860
 30
0.0
 10
37.325126
 20
27.783138
 30
0.0
 10
37.373767
 20
27.553826
 30
0.0
 10
37.383193
 20
27.386971
 30
0.0
 10
37.346518
 20
27.272621
 30
0.0
 10
37.256814
 20
27.200820
 30
0.0
 10
37.107163
 20
27.161615
 30
0.0
 10
36.890653
 20
27.145054
 30
0.0
 10
36.600368
 20
27.141182
 30
0.0
 10
36.104238
 20
27.137251
 30
0.0
 10
35.731758
 20
27.116126
 30
0.0
 10
35.465205
 20
27.059405
 30
0.0
 10
35.286855
 20
26.948685
 30
0.0
 10
35.178987
 20
26.765564
 30
0.0
 10
35.123880
 20
26.491641
 30
0.0
 10
35.103814
 20
26.108514
 30
0.0
 10
35.100992
 20
25.597780
 30
0.0
 10
35.110813
 20
24.980075
 30
0.0
 10
35.153587
 20
24.505362
 30
0.0
 10
35.249226
 20
24.154953
 30
0.0
 10
35.417651
 20
23.910162
 30
0.0
 10
35.678783
 20
23.752299
 30
0.0
 10
36.052546
 20
23.662677
 30
0.0
 10
36.558861
 20
23.622608
 30
0.0
 10
37.217650
 20
23.613405
 30
0.0
 10
37.778098
 20
23.623588
 30
0.0
 10
38.246542
 20
23.657137
 30
0.0
 10
38.634747
 20
23.718554
 30
0.0
 10
38.954482
 20
23.812340
 30
0.0
 10
39.217516
 20
23.942995
 30
0.0
 10
39.435620
 20
24.115019
 30
0.0
 10
39.620563
 20
24.332915
 30
0.0
 10
39.784108
 20
24.601182
 30
0.0
 10
39.857884
 20
24.780653
 30
0.0
 10
39.914094
 20
25.039481
 30
0.0
 10
39.954452
 20
25.427475
 30
0.0
 10
39.980642
 20
25.994442
 30
0.0
 10
39.994415
 20
26.790189
 30
0.0
 10
39.997434
 20
27.864526
 30
0.0
 10
39.991423
 20
29.267259
 30
0.0
 10
39.978102
 20
31.048196
 30
0.0
 10
39.972599
 20
31.795644
 30
0.0
 10
39.967096
 20
32.543092
 30
0.0
 10
39.961592
 20
33.290540
 30
0.0
 10
39.956089
 20
34.037988
 30
0.0
 10
39.950586
 20
34.785436
 30
0.0
 10
39.945082
 20
35.532884
 30
0.0
 10
39.939579
 20
36.280331
 30
0.0
 10
39.934444
 20
37.027852
 30
0.0
 10
39.880424
 20
37.118251
 30
0.0
 10
39.826407
 20
37.208651
 30
0.0
 10
39.772387
 20
37.299050
 30
0.0
 10
39.718367
 20
37.389449
 30
0.0
 10
39.664349
 20
37.479848
 30
0.0
 10
39.610329
 20
37.570248
 30
0.0
 10
39.556312
 20
37.660647
 30
0.0
 10
39.502292
 20
37.751046
 30
0.0
 10
39.315734
 20
38.035785
 30
0.0
 10
39.097545
 20
38.323823
 30
0.0
 10
38.860428
 20
38.602442
 30
0.0
 10
38.617082
 20
38.858924
 30
0.0
 10
38.380207
 20
39.080549
 30
0.0
 10
38.162507
 20
39.254599
 30
0.0
 10
37.976675
 20
39.368357
 30
0.0
 10
37.835417
 20
39.409102
 30
0.0
 10
37.794128
 20
39.414418
 30
0.0
 10
37.743500
 20
39.429690
 30
0.0
 10
37.685596
 20
39.453907
 30
0.0
 10
37.622477
 20
39.486053
 30
0.0
 10
37.556211
 20
39.525118
 30
0.0
 10
37.488862
 20
39.570086
 30
0.0
 10
37.422492
 20
39.619947
 30
0.0
 10
37.359167
 20
39.673685
 30
0.0
 10
37.235319
 20
39.756132
 30
0.0
 10
37.029472
 20
39.820289
 30
0.0
 10
36.684252
 20
39.868404
 30
0.0
 10
36.142272
 20
39.902728
 30
0.0
 10
35.346163
 20
39.925509
 30
0.0
 10
34.238537
 20
39.938997
 30
0.0
 10
32.762023
 20
39.945440
 30
0.0
 10
30.859236
 20
39.947088
 30
0.0
 10
30.084228
 20
39.947088
 30
0.0
 10
29.309218
 20
39.947088
 30
0.0
 10
28.534210
 20
39.947088
 30
0.0
 10
27.759201
 20
39.947088
 30
0.0
 10
26.984193
 20
39.947088
 30
0.0
 10
26.209184
 20
39.947088
 30
0.0
 10
25.434175
 20
39.947088
 30
0.0
 10
24.659167
 20
39.947088
 30
0.0
 10
24.593021
 20
39.875430
 30
0.0
 10
24.526875
 20
39.803772
 30
0.0
 10
24.460729
 20
39.732114
 30
0.0
 10
24.394583
 20
39.660456
 30
0.0
 10
24.328437
 20
39.588798
 30
0.0
 10
24.262292
 20
39.517140
 30
0.0
 10
24.196146
 20
39.445482
 30
0.0
 10
24.130000
 20
39.373824
 30
0.0
 10
23.957209
 20
39.181805
 30
0.0
 10
23.827653
 20
39.018299
 30
0.0
 10
23.735106
 20
38.858999
 30
0.0
 10
23.673344
 20
38.679597
 30
0.0
 10
23.636142
 20
38.455784
 30
0.0
 10
23.617276
 20
38.163251
 30
0.0
 10
23.610522
 20
37.777692
 30
0.0
 10
23.609647
 20
37.274796
 30
0.0
 10
23.610522
 20
36.774862
 30
0.0
 10
23.616824
 20
36.393671
 30
0.0
 10
23.634059
 20
36.109096
 30
0.0
 10
23.667738
 20
35.899009
 30
0.0
 10
23.723370
 20
35.741281
 30
0.0
 10
23.806464
 20
35.613786
 30
0.0
 10
23.922530
 20
35.494393
 30
0.0
 10
24.077078
 20
35.360977
 30
0.0
 10
24.222312
 20
35.245586
 30
0.0
 10
24.359720
 20
35.154470
 30
0.0
 10
24.499714
 20
35.084887
 30
0.0
 10
24.652704
 20
35.034099
 30
0.0
 10
24.829101
 20
34.999366
 30
0.0
 10
25.039316
 20
34.977948
 30
0.0
 10
25.293760
 20
34.967105
 30
0.0
 10
25.602842
 20
34.964099
 30
0.0
 10
26.060432
 20
34.973365
 30
0.0
 10
26.417286
 20
35.008935
 30
0.0
 10
26.685649
 20
35.082478
 30
0.0
 10
26.877763
 20
35.205662
 30
0.0
 10
27.005872
 20
35.390151
 30
0.0
 10
27.082220
 20
35.647614
 30
0.0
 10
27.119050
 20
35.989718
 30
0.0
 10
27.128606
 20
36.428128
 30
0.0
 10
27.129678
 20
36.751300
 30
0.0
 10
27.136133
 20
36.994967
 30
0.0
 10
27.152846
 20
37.170353
 30
0.0
 10
27.184687
 20
37.288682
 30
0.0
 10
27.236528
 20
37.361178
 30
0.0
 10
27.313240
 20
37.399065
 30
0.0
 10
27.419694
 20
37.413567
 30
0.0
 10
27.560761
 20
37.415906
 30
0.0
 10
27.761976
 20
37.389950
 30
0.0
 10
27.986467
 20
37.316283
 30
0.0
 10
28.225036
 20
37.201208
 30
0.0
 10
28.468481
 20
37.051027
 30
0.0
 10
28.707600
 20
36.872041
 30
0.0
 10
28.933197
 20
36.670554
 30
0.0
 10
29.136067
 20
36.452866
 30
0.0
 10
29.307011
 20
36.225281
 30
0.0
 10
29.444253
 20
35.922128
 30
0.0
 10
29.538552
 20
35.512429
 30
0.0
 10
29.590518
 20
35.022682
 30
0.0
 10
29.600762
 20
34.479383
 30
0.0
 10
29.569870
 20
33.909031
 30
0.0
 10
29.498451
 20
33.338123
 30
0.0
 10
29.387117
 20
32.793156
 30
0.0
 10
29.236470
 20
32.300628
 30
0.0
 10
29.016921
 20
31.838518
 30
0.0
 10
28.691033
 20
31.321107
 30
0.0
 10
28.283493
 20
30.775756
 30
0.0
 10
27.818992
 20
30.229830
 30
0.0
 10
27.322213
 20
29.710693
 30
0.0
 10
26.817844
 20
29.245706
 30
0.0
 10
26.330571
 20
28.862235
 30
0.0
 10
25.885081
 20
28.587642
 30
0.0
 10
25.349823
 20
28.324252
 30
0.0
 10
24.878026
 20
28.123608
 30
0.0
 10
24.409062
 20
27.977161
 30
0.0
 10
23.882308
 20
27.876361
 30
0.0
 10
23.237137
 20
27.812656
 30
0.0
 10
22.412925
 20
27.777497
 30
0.0
 10
21.349045
 20
27.762333
 30
0.0
 10
19.984873
 20
27.758614
 30
0.0
 10
18.681201
 20
27.760561
 30
0.0
 10
17.659608
 20
27.772254
 30
0.0
 10
16.866074
 20
27.799875
 30
0.0
 10
16.246581
 20
27.849616
 30
0.0
 10
15.747096
 20
27.927682
 30
0.0
 10
15.313625
 20
28.040236
 30
0.0
 10
14.892137
 20
28.193484
 30
0.0
 10
14.428611
 20
28.393616
 30
0.0
 10
14.047248
 20
28.612568
 30
0.0
 10
13.588159
 20
28.950950
 30
0.0
 10
13.082478
 20
29.378401
 30
0.0
 10
12.561341
 20
29.864562
 30
0.0
 10
12.055883
 20
30.379072
 30
0.0
 10
11.597239
 20
30.891572
 30
0.0
 10
11.216543
 20
31.371702
 30
0.0
 10
10.944931
 20
31.789102
 30
0.0
 10
10.812826
 20
32.039107
 30
0.0
 10
10.709263
 20
32.265376
 30
0.0
 10
10.630179
 20
32.488318
 30
0.0
 10
10.571516
 20
32.728338
 30
0.0
 10
10.529213
 20
33.005845
 30
0.0
 10
10.499210
 20
33.341247
 30
0.0
 10
10.477446
 20
33.754952
 30
0.0
 10
10.459861
 20
34.267366
 30
0.0
 10
10.447215
 20
34.767471
 30
0.0
 10
10.443408
 20
35.170501
 30
0.0
 10
10.450395
 20
35.492450
 30
0.0
 10
10.470131
 20
35.749312
 30
0.0
 10
10.504568
 20
35.957080
 30
0.0
 10
10.555660
 20
36.131750
 30
0.0
 10
10.625361
 20
36.289315
 30
0.0
 10
10.715625
 20
36.445769
 30
0.0
 10
10.870495
 20
36.657585
 30
0.0
 10
11.053793
 20
36.849305
 30
0.0
 10
11.259104
 20
37.017411
 30
0.0
 10
11.480013
 20
37.158385
 30
0.0
 10
11.710104
 20
37.268711
 30
0.0
 10
11.942962
 20
37.344872
 30
0.0
 10
12.172172
 20
37.383351
 30
0.0
 10
12.391319
 20
37.380630
 30
0.0
 10
12.522039
 20
37.361989
 30
0.0
 10
12.621911
 20
37.333033
 30
0.0
 10
12.695716
 20
37.282998
 30
0.0
 10
12.748238
 20
37.201122
 30
0.0
 10
12.784256
 20
37.076640
 30
0.0
 10
12.808553
 20
36.898791
 30
0.0
 10
12.825909
 20
36.656810
 30
0.0
 10
12.841110
 20
36.339936
 30
0.0
 10
12.868646
 20
35.927011
 30
0.0
 10
12.918789
 20
35.605082
 30
0.0
 10
13.003703
 20
35.363072
 30
0.0
 10
13.135556
 20
35.189904
 30
0.0
 10
13.326515
 20
35.074500
 30
0.0
 10
13.588746
 20
35.005783
 30
0.0
 10
13.934417
 20
34.972676
 30
0.0
 10
14.375692
 20
34.964102
 30
0.0
 10
14.637612
 20
34.967850
 30
0.0
 10
14.866373
 20
34.979791
 30
0.0
 10
15.066651
 20
35.000960
 30
0.0
 10
15.243122
 20
35.032398
 30
0.0
 10
15.400461
 20
35.075143
 30
0.0
 10
15.543344
 20
35.130232
 30
0.0
 10
15.676446
 20
35.198705
 30
0.0
 10
15.804444
 20
35.281602
 30
0.0
 10
15.949623
 20
35.388663
 30
0.0
 10
16.059027
 20
35.488738
 30
0.0
 10
16.137679
 20
35.602154
 30
0.0
 10
16.190601
 20
35.749238
 30
0.0
 10
16.222814
 20
35.950315
 30
0.0
 10
16.239341
 20
36.225711
 30
0.0
 10
16.245200
 20
36.595754
 30
0.0
 10
16.245417
 20
37.080769
 30
0.0
 10
16.228090
 20
37.712146
 30
0.0
 10
16.176948
 20
38.253308
 30
0.0
 10
16.089798
 20
38.709561
 30
0.0
 10
15.964445
 20
39.086214
 30
0.0
 10
15.798698
 20
39.388576
 30
0.0
 10
15.590362
 20
39.621954
 30
0.0
 10
15.337245
 20
39.791656
 30
0.0
 10
15.037153
 20
39.902991
 30
0.0
 10
14.892372
 20
39.922952
 30
0.0
 10
14.625979
 20
39.941099
 30
0.0
 10
14.248751
 20
39.957221
 30
0.0
 10
13.771462
 20
39.971104
 30
0.0
 10
13.204889
 20
39.982536
 30
0.0
 10
12.559808
 20
39.991305
 30
0.0
 10
11.846993
 20
39.997199
 30
0.0
 10
11.077222
 20
40.000005
 30
0.0
  0
LWPOLYLINE
  5
101
100
AcDbEntity
  8
0
 62
7
100
AcDbPolyline
 90
73
 70
0
 10
20.011319
 20
22.960838
 30
0.0
 10
20.155240
 20
22.965235
 30
0.0
 10
20.296569
 20
22.964812
 30
0.0
 10
20.434467
 20
22.959455
 30
0.0
 10
20.568098
 20
22.949061
 30
0.0
 10
20.696624
 20
22.933527
 30
0.0
 10
20.819207
 20
22.912745
 30
0.0
 10
20.935009
 20
22.886608
 30
0.0
 10
21.043194
 20
22.855011
 30
0.0
 10
21.358117
 20
22.716001
 30
0.0
 10
21.670409
 20
22.513475
 30
0.0
 10
21.969941
 20
22.259361
 30
0.0
 10
22.246586
 20
21.965590
 30
0.0
 10
22.490216
 20
21.644089
 30
0.0
 10
22.690703
 20
21.306790
 30
0.0
 10
22.837919
 20
20.965621
 30
0.0
 10
22.921736
 20
20.632511
 30
0.0
 10
22.949219
 20
20.328034
 30
0.0
 10
22.948457
 20
20.005980
 30
0.0
 10
22.925495
 20
19.680597
 30
0.0
 10
22.886384
 20
19.366130
 30
0.0
 10
22.837169
 20
19.076824
 30
0.0
 10
22.783900
 20
18.826925
 30
0.0
 10
22.732624
 20
18.630679
 30
0.0
 10
22.689388
 20
18.502331
 30
0.0
 10
22.675119
 20
18.465394
 30
0.0
 10
22.664073
 20
18.433871
 30
0.0
 10
22.653478
 20
18.405200
 30
0.0
 10
22.640563
 20
18.376820
 30
0.0
 10
22.622558
 20
18.346169
 30
0.0
 10
22.596689
 20
18.310684
 30
0.0
 10
22.560185
 20
18.267805
 30
0.0
 10
22.510276
 20
18.214968
 30
0.0
 10
22.454867
 20
18.111929
 30
0.0
 10
22.386394
 20
18.010940
 30
0.0
 10
22.300194
 20
17.910123
 30
0.0
 10
22.191603
 20
17.807600
 30
0.0
 10
22.055959
 20
17.701490
 30
0.0
 10
21.888598
 20
17.589916
 30
0.0
 10
21.684859
 20
17.470998
 30
0.0
 10
21.440077
 20
17.342858
 30
0.0
 10
20.986440
 20
17.134425
 30
0.0
 10
20.573984
 20
16.986336
 30
0.0
 10
20.193534
 20
16.898669
 30
0.0
 10
19.835916
 20
16.871499
 30
0.0
 10
19.491949
 20
16.904895
 30
0.0
 10
19.152473
 20
16.998948
 30
0.0
 10
18.808308
 20
17.153727
 30
0.0
 10
18.450278
 20
17.369310
 30
0.0
 10
18.080555
 20
17.652156
 30
0.0
 10
17.752989
 20
17.974541
 30
0.0
 10
17.472075
 20
18.327944
 30
0.0
 10
17.242304
 20
18.703848
 30
0.0
 10
17.068170
 20
19.093733
 30
0.0
 10
16.954165
 20
19.489081
 30
0.0
 10
16.904782
 20
19.881372
 30
0.0
 10
16.924514
 20
20.262088
 30
0.0
 10
16.991924
 20
20.580380
 30
0.0
 10
17.097094
 20
20.901525
 30
0.0
 10
17.235927
 20
21.218628
 30
0.0
 10
17.404321
 20
21.524797
 30
0.0
 10
17.598178
 20
21.813134
 30
0.0
 10
17.813398
 20
22.076749
 30
0.0
 10
18.045881
 20
22.308744
 30
0.0
 10
18.291528
 20
22.502227
 30
0.0
 10
18.448700
 20
22.595878
 30
0.0
 10
18.630845
 20
22.680121
 30
0.0
 10
18.833734
 20
22.754470
 30
0.0
 10
19.053137
 20
22.818440
 30
0.0
 10
19.284826
 20
22.871547
 30
0.0
 10
19.524572
 20
22.913305
 30
0.0
 10
19.768146
 20
22.943230
 30
0.0
 10
20.011319
 20
22.960838
 30
0.0
  0
ENDSEC
  0
SECTION
  2
OBJECTS
  0
DICTIONARY
  5
C
330
0
100
AcDbDictionary
  3
ACAD_GROUP
350
D
  3
ACAD_MLINESTYLE
350
17
  0
DICTIONARY
  5
D
330
C
100
AcDbDictionary
  0
DICTIONARY
  5
1A
330
C
100
AcDbDictionary
  0
DICTIONARY
  5
17
330
C
100
AcDbDictionary
  3
STANDARD
350
18
  0
DICTIONARY
  5
19
330
C
100
AcDbDictionary
  0
ENDSEC
  0
EOF
